<svg width="57" height="16" viewBox="0 0 57 16" fill="none" xmlns="http://www.w3.org/2000/svg">
<path d="M0.958807 10V1.27273H4.15483C4.77415 1.27273 5.28693 1.375 5.69318 1.57955C6.09943 1.78125 6.40341 2.0554 6.60511 2.40199C6.80682 2.74574 6.90767 3.13352 6.90767 3.56534C6.90767 3.92898 6.84091 4.2358 6.70739 4.4858C6.57386 4.73295 6.39489 4.93182 6.17045 5.08239C5.94886 5.23011 5.70455 5.33807 5.4375 5.40625V5.49148C5.72727 5.50568 6.00994 5.59943 6.28551 5.77273C6.56392 5.94318 6.79403 6.18608 6.97585 6.50142C7.15767 6.81676 7.24858 7.20028 7.24858 7.65199C7.24858 8.09801 7.14347 8.49858 6.93324 8.85369C6.72585 9.20597 6.40483 9.4858 5.97017 9.69318C5.53551 9.89773 4.98011 10 4.30398 10H0.958807ZM2.27557 8.87074H4.17614C4.80682 8.87074 5.25852 8.74858 5.53125 8.50426C5.80398 8.25994 5.94034 7.95455 5.94034 7.58807C5.94034 7.3125 5.87074 7.05966 5.73153 6.82955C5.59233 6.59943 5.39347 6.41619 5.13494 6.27983C4.87926 6.14347 4.57528 6.07528 4.22301 6.07528H2.27557V8.87074ZM2.27557 5.0483H4.03977C4.33523 5.0483 4.60085 4.99148 4.83665 4.87784C5.07528 4.7642 5.2642 4.60511 5.40341 4.40057C5.54545 4.19318 5.61648 3.94886 5.61648 3.66761C5.61648 3.30682 5.49006 3.00426 5.23722 2.75994C4.98438 2.51562 4.59659 2.39347 4.07386 2.39347H2.27557V5.0483ZM35.5901 10V1.27273H38.7009C39.377 1.27273 39.9381 1.3892 40.3841 1.62216C40.833 1.85511 41.1682 2.17756 41.3898 2.58949C41.6114 2.99858 41.7222 3.47159 41.7222 4.00852C41.7222 4.54261 41.6099 5.01278 41.3855 5.41903C41.1639 5.82244 40.8287 6.13636 40.3798 6.3608C39.9338 6.58523 39.3727 6.69744 38.6966 6.69744H36.3401V5.56392H38.5773C39.0034 5.56392 39.35 5.50284 39.617 5.38068C39.8869 5.25852 40.0844 5.08097 40.2094 4.84801C40.3344 4.61506 40.3969 4.33523 40.3969 4.00852C40.3969 3.67898 40.333 3.39347 40.2051 3.15199C40.0801 2.91051 39.8827 2.72585 39.6128 2.59801C39.3457 2.46733 38.9949 2.40199 38.5602 2.40199H36.9068V10H35.5901ZM39.8983 6.0625L42.0545 10H40.5545L38.4409 6.0625H39.8983Z" fill="#FEAFBE"/>
<path d="M9.06759 10H7.66986L10.8105 1.27273H12.3318L15.4724 10H14.0747L11.6074 2.85795H11.5392L9.06759 10ZM9.30196 6.58239H13.8361V7.69034H9.30196V6.58239ZM44.1612 1.27273V10H42.8444V1.27273H44.1612Z" fill="#B3DFD3"/>
<path d="M16.2527 10V1.27273H17.5695V8.86648H21.524V10H16.2527ZM52.6428 1.27273V10H51.4326L46.9965 3.59943H46.9156V10H45.5988V1.27273H46.8176L51.2579 7.68182H51.3389V1.27273H52.6428Z" fill="#A45A49"/>
<path d="M22.5462 10V1.27273H23.8629V8.86648H27.8175V10H22.5462ZM55.4004 1.27273V10H54.0837V1.27273H55.4004Z" fill="#EFC764"/>
<path d="M28.8396 10V1.27273H34.3112V2.40625H30.1563V5.06534H34.0257V6.1946H30.1563V8.86648H34.3623V10H28.8396Z" fill="#97D4D9"/>
<path d="M20.093 12C20.093 12 20.5578 12.2772 20.7695 12.5412C21.0013 12.8304 21.1686 13.4022 21.1686 13.4022M21.1686 13.4022C21.1686 13.4022 21.1754 14.4355 20.675 14.7373C20.4925 14.8473 20.2895 14.8725 20.1295 14.7318C19.9915 14.6105 19.9863 14.4582 20.0122 14.2763C20.0476 14.0274 20.1713 13.9211 20.3636 13.7589C20.613 13.5486 21.1686 13.4022 21.1686 13.4022ZM21.1686 13.4022C21.1686 13.4022 21.8101 13.2007 22.2296 13.1049C22.7365 12.9891 23.0255 12.9375 23.5429 12.8853C24.0847 12.8307 24.8286 12.8118 24.8286 12.8118C24.8286 12.8118 25.6921 12.8063 26.0463 13.0824C26.2623 13.2508 26.4735 13.49 26.4735 13.49M26.4735 13.49C26.4735 13.49 26.5788 13.9302 26.5594 14.1481C26.5215 14.5751 26.2926 14.7976 25.9594 15.0673C25.4832 15.4527 24.5895 16.0108 24.4306 15.4191C24.3551 15.1379 24.5934 14.547 24.9639 14.1649C25.4025 13.7123 26.4735 13.49 26.4735 13.49ZM26.4735 13.49C26.4735 13.49 29.6907 12.9881 29.85 12.9944C30.0094 13.0008 30.1036 13.0011 30.2407 13.0824C30.4781 13.2233 30.4164 13.4496 30.4037 13.7254C30.3852 14.1283 30.2156 14.3403 29.9782 14.6664C29.7938 14.9197 29.6111 15.0735 29.4096 15.2323C29.208 15.3911 29.5175 14.8947 29.6291 14.6991C29.9318 14.1685 30.2955 13.9947 30.8265 13.6927C31.4602 13.3322 31.8899 13.2547 32.6102 13.1417C33.1108 13.0632 33.3992 13.0538 33.9057 13.0694C34.4801 13.0872 34.7934 13.1987 35.3649 13.259C36.0019 13.3262 36.3603 13.3543 37 13.3872" stroke="white" stroke-width="0.270606" stroke-linecap="round"/>
</svg>
